<svg width="current" height="current" viewBox="0 0 61 53" fill="none" xmlns="http://www.w3.org/2000/svg">
  <path
    d="M49.753 28.9573V8.06137C49.753 5.83389 48.8316 3.81855 47.3786 2.36891C45.9255 0.91928 43.9054 0 41.6727 0H8.42994C6.19722 0 4.17713 0.91928 2.72409 2.36891C1.27105 3.81855 0.349609 5.83389 0.349609 8.06137V42.1808C0.349609 44.4083 1.27105 46.4236 2.72409 47.8732C4.17713 49.3229 6.19722 50.2422 8.42994 50.2422H40.5741C42.665 51.9393 45.323 53.0354 48.2291 53.0354C51.5959 53.0354 54.6083 51.6918 56.8056 49.4997C59.0029 47.3075 60.3496 44.2668 60.3496 40.9433C60.3496 37.6197 59.0029 34.5791 56.8056 32.3869C54.9627 30.5484 52.4819 29.3462 49.753 28.9927V28.9573ZM4.88594 4.52568C5.80738 3.6064 7.04778 3.07605 8.42994 3.07605H41.6727C43.0549 3.07605 44.2953 3.64176 45.2167 4.52568C46.1381 5.44496 46.6698 6.68246 46.6698 8.06137V25.8813L38.2705 17.4663C37.668 16.8652 36.7111 16.8652 36.1086 17.4663L23.3148 30.2655L14.6674 21.6031C14.0649 21.002 13.108 21.002 12.5055 21.6031L3.43289 30.6898V8.06137C3.43289 6.68246 3.99993 5.44496 4.88594 4.52568ZM8.42994 47.1661C7.04778 47.1661 5.80738 46.6004 4.88594 45.7165C3.96449 44.7972 3.43289 43.5597 3.43289 42.1808V35.0387L13.6042 24.8559L22.2516 33.5183C22.854 34.1194 23.8109 34.1194 24.4134 33.5183L37.2073 20.7191L45.5711 29.0987C45.5711 29.0987 45.2521 29.2048 45.0749 29.2402C44.8269 29.3109 44.5788 29.3816 44.3661 29.4523C44.1181 29.523 43.9054 29.5937 43.6928 29.6998C43.551 29.7705 43.4093 29.8412 43.2321 29.9119C43.0194 30.018 42.8422 30.0887 42.6296 30.1948C42.3461 30.3362 42.0271 30.513 41.7436 30.7251C41.6018 30.8312 41.4601 30.9019 41.3183 31.008C41.212 31.0787 41.1411 31.1141 41.0348 31.1848C40.5386 31.5384 40.0779 31.9273 39.6172 32.3869C37.4199 34.5791 36.0732 37.6197 36.0732 40.9433C36.0732 41.7919 36.1795 42.6404 36.3213 43.4183C36.3567 43.6304 36.463 43.8072 36.4985 44.0193C36.6402 44.5851 36.8174 45.1861 37.0655 45.7165C37.0655 45.7165 37.0655 45.7518 37.0655 45.7872C37.2781 46.2822 37.5262 46.7418 37.7743 47.1661H8.42994ZM54.6083 47.3075C52.9781 48.934 50.7099 49.9593 48.1937 49.9593C45.6774 49.9593 43.551 49.0047 41.9208 47.449C41.6727 47.2015 41.4601 46.954 41.2474 46.6711C41.0702 46.459 40.893 46.2822 40.7513 46.07C40.5386 45.7518 40.3614 45.4336 40.1842 45.0801C40.0779 44.8679 39.9361 44.6911 39.8653 44.479C39.7235 44.1608 39.6526 43.8426 39.5463 43.489C39.4754 43.2415 39.3691 42.994 39.2982 42.7465C39.1919 42.1454 39.121 41.5444 39.121 40.9079C39.121 38.3976 40.1488 36.1348 41.779 34.5083C43.4093 32.8819 45.6774 31.8566 48.1937 31.8566C50.7099 31.8566 52.9781 32.8819 54.6083 34.5083C56.2386 36.1348 57.2663 38.3976 57.2663 40.9079C57.2663 43.4183 56.2386 45.6811 54.6083 47.3075Z"
    fill="#171616"
    fill-opacity="0.3"
  />
  <path
    d="M53.225 39.3525H49.7519V35.8875C49.7519 35.039 49.0786 34.3672 48.228 34.3672C47.3774 34.3672 46.7041 35.039 46.7041 35.8875V39.3525H43.231C42.3804 39.3525 41.707 40.0243 41.707 40.8729C41.707 41.7214 42.3804 42.3932 43.231 42.3932H46.7041V45.8582C46.7041 46.7067 47.3774 47.3785 48.228 47.3785C49.0786 47.3785 49.7519 46.7067 49.7519 45.8582V42.3932H53.225C54.0756 42.3932 54.749 41.7214 54.749 40.8729C54.749 40.0243 54.0756 39.3525 53.225 39.3525Z"
    fill="#7960BE"
  />
</svg>
