<svg width="current" height="current" viewBox="0 0 151 45" fill="none" xmlns="http://www.w3.org/2000/svg">
  <path
    d="M14.91 29.01H6.57L5.19 33H0.78L8.31 12.03H13.2L20.73 33H16.29L14.91 29.01ZM13.77 25.65L10.74 16.89L7.71 25.65H13.77ZM27.6846 19.83V27.87C27.6846 28.43 27.8146 28.84 28.0746 29.1C28.3546 29.34 28.8146 29.46 29.4546 29.46H31.4046V33H28.7646C25.2246 33 23.4546 31.28 23.4546 27.84V19.83H21.4746V16.38H23.4546V12.27H27.6846V16.38H31.4046V19.83H27.6846ZM41.0555 33.27C39.4555 33.27 38.0155 32.92 36.7355 32.22C35.4555 31.5 34.4455 30.49 33.7055 29.19C32.9855 27.89 32.6255 26.39 32.6255 24.69C32.6255 22.99 32.9955 21.49 33.7355 20.19C34.4955 18.89 35.5255 17.89 36.8255 17.19C38.1255 16.47 39.5755 16.11 41.1755 16.11C42.7755 16.11 44.2255 16.47 45.5255 17.19C46.8255 17.89 47.8455 18.89 48.5855 20.19C49.3455 21.49 49.7255 22.99 49.7255 24.69C49.7255 26.39 49.3355 27.89 48.5555 29.19C47.7955 30.49 46.7555 31.5 45.4355 32.22C44.1355 32.92 42.6755 33.27 41.0555 33.27ZM41.0555 29.61C41.8155 29.61 42.5255 29.43 43.1855 29.07C43.8655 28.69 44.4055 28.13 44.8055 27.39C45.2055 26.65 45.4055 25.75 45.4055 24.69C45.4055 23.11 44.9855 21.9 44.1455 21.06C43.3255 20.2 42.3155 19.77 41.1155 19.77C39.9155 19.77 38.9055 20.2 38.0855 21.06C37.2855 21.9 36.8855 23.11 36.8855 24.69C36.8855 26.27 37.2755 27.49 38.0555 28.35C38.8555 29.19 39.8555 29.61 41.0555 29.61ZM58.5663 16.11C59.8063 16.11 60.8963 16.36 61.8363 16.86C62.7763 17.34 63.5163 17.97 64.0563 18.75V16.38H68.2863V33.12C68.2863 34.66 67.9763 36.03 67.3563 37.23C66.7363 38.45 65.8063 39.41 64.5663 40.11C63.3263 40.83 61.8263 41.19 60.0663 41.19C57.7063 41.19 55.7663 40.64 54.2463 39.54C52.7463 38.44 51.8963 36.94 51.6963 35.04H55.8663C56.0863 35.8 56.5563 36.4 57.2763 36.84C58.0163 37.3 58.9063 37.53 59.9463 37.53C61.1663 37.53 62.1563 37.16 62.9163 36.42C63.6763 35.7 64.0563 34.6 64.0563 33.12V30.54C63.5163 31.32 62.7663 31.97 61.8063 32.49C60.8663 33.01 59.7863 33.27 58.5663 33.27C57.1663 33.27 55.8863 32.91 54.7263 32.19C53.5663 31.47 52.6463 30.46 51.9663 29.16C51.3063 27.84 50.9763 26.33 50.9763 24.63C50.9763 22.95 51.3063 21.46 51.9663 20.16C52.6463 18.86 53.5563 17.86 54.6963 17.16C55.8563 16.46 57.1463 16.11 58.5663 16.11ZM64.0563 24.69C64.0563 23.67 63.8563 22.8 63.4563 22.08C63.0563 21.34 62.5163 20.78 61.8363 20.4C61.1563 20 60.4263 19.8 59.6463 19.8C58.8663 19.8 58.1463 19.99 57.4863 20.37C56.8263 20.75 56.2863 21.31 55.8663 22.05C55.4663 22.77 55.2663 23.63 55.2663 24.63C55.2663 25.63 55.4663 26.51 55.8663 27.27C56.2863 28.01 56.8263 28.58 57.4863 28.98C58.1663 29.38 58.8863 29.58 59.6463 29.58C60.4263 29.58 61.1563 29.39 61.8363 29.01C62.5163 28.61 63.0563 28.05 63.4563 27.33C63.8563 26.59 64.0563 25.71 64.0563 24.69ZM70.5584 24.63C70.5584 22.95 70.8884 21.46 71.5484 20.16C72.2284 18.86 73.1384 17.86 74.2784 17.16C75.4384 16.46 76.7284 16.11 78.1484 16.11C79.3884 16.11 80.4684 16.36 81.3884 16.86C82.3284 17.36 83.0784 17.99 83.6384 18.75V16.38H87.8684V33H83.6384V30.57C83.0984 31.35 82.3484 32 81.3884 32.52C80.4484 33.02 79.3584 33.27 78.1184 33.27C76.7184 33.27 75.4384 32.91 74.2784 32.19C73.1384 31.47 72.2284 30.46 71.5484 29.16C70.8884 27.84 70.5584 26.33 70.5584 24.63ZM83.6384 24.69C83.6384 23.67 83.4384 22.8 83.0384 22.08C82.6384 21.34 82.0984 20.78 81.4184 20.4C80.7384 20 80.0084 19.8 79.2284 19.8C78.4484 19.8 77.7284 19.99 77.0684 20.37C76.4084 20.75 75.8684 21.31 75.4484 22.05C75.0484 22.77 74.8484 23.63 74.8484 24.63C74.8484 25.63 75.0484 26.51 75.4484 27.27C75.8684 28.01 76.4084 28.58 77.0684 28.98C77.7484 29.38 78.4684 29.58 79.2284 29.58C80.0084 29.58 80.7384 29.39 81.4184 29.01C82.0984 28.61 82.6384 28.05 83.0384 27.33C83.4384 26.59 83.6384 25.71 83.6384 24.69ZM96.1104 19.83V27.87C96.1104 28.43 96.2404 28.84 96.5004 29.1C96.7804 29.34 97.2404 29.46 97.8804 29.46H99.8304V33H97.1904C93.6504 33 91.8804 31.28 91.8804 27.84V19.83H89.9004V16.38H91.8804V12.27H96.1104V16.38H99.8304V19.83H96.1104ZM109.481 33.27C107.881 33.27 106.441 32.92 105.161 32.22C103.881 31.5 102.871 30.49 102.131 29.19C101.411 27.89 101.051 26.39 101.051 24.69C101.051 22.99 101.421 21.49 102.161 20.19C102.921 18.89 103.951 17.89 105.251 17.19C106.551 16.47 108.001 16.11 109.601 16.11C111.201 16.11 112.651 16.47 113.951 17.19C115.251 17.89 116.271 18.89 117.011 20.19C117.771 21.49 118.151 22.99 118.151 24.69C118.151 26.39 117.761 27.89 116.981 29.19C116.221 30.49 115.181 31.5 113.861 32.22C112.561 32.92 111.101 33.27 109.481 33.27ZM109.481 29.61C110.241 29.61 110.951 29.43 111.611 29.07C112.291 28.69 112.831 28.13 113.231 27.39C113.631 26.65 113.831 25.75 113.831 24.69C113.831 23.11 113.411 21.9 112.571 21.06C111.751 20.2 110.741 19.77 109.541 19.77C108.341 19.77 107.331 20.2 106.511 21.06C105.711 21.9 105.311 23.11 105.311 24.69C105.311 26.27 105.701 27.49 106.481 28.35C107.281 29.19 108.281 29.61 109.481 29.61Z"
    fill="currentColor"
  />
  <path
    d="M126.514 13.1973C126.514 12.9518 126.531 12.717 126.565 12.4927C126.603 12.2684 126.65 12.042 126.705 11.8135C126.764 11.585 126.829 11.3564 126.901 11.1279L127.612 8.95703C128.175 7.19661 128.528 5.82129 128.672 4.83105C128.719 4.47559 128.892 4.29785 129.193 4.29785C129.371 4.29785 129.521 4.3444 129.644 4.4375C129.868 4.61947 129.976 4.81413 129.967 5.02148C129.963 5.22461 129.933 5.45312 129.878 5.70703C129.828 5.95671 129.76 6.22965 129.675 6.52588C129.595 6.8221 129.502 7.13314 129.396 7.45898C129.112 8.29688 128.901 8.90202 128.761 9.27441L128.399 10.2202C128.768 9.64893 129.068 9.25749 129.301 9.0459C129.766 8.63542 130.251 8.43018 130.754 8.43018C131.495 8.43018 131.988 8.81738 132.233 9.5918C132.314 9.8584 132.354 10.1906 132.354 10.5884C132.354 10.9862 132.295 11.3818 132.176 11.7754C132.062 12.1647 131.905 12.5286 131.707 12.8672C131.508 13.2015 131.275 13.5041 131.008 13.7749C130.746 14.0457 130.469 14.2764 130.177 14.4668C129.559 14.8646 128.96 15.0635 128.38 15.0635C127.796 15.0635 127.337 14.8857 127.003 14.5303C126.677 14.1748 126.514 13.7305 126.514 13.1973ZM128.292 14.2383C128.689 14.2383 129.093 14.0605 129.504 13.7051C130.13 13.1634 130.551 12.389 130.767 11.3818C130.839 11.0518 130.875 10.709 130.875 10.3535C130.875 9.99382 130.835 9.74202 130.754 9.59814C130.674 9.45426 130.549 9.38232 130.38 9.38232C130.215 9.38232 130.041 9.45003 129.859 9.58545C129.677 9.72087 129.487 9.90072 129.288 10.125C129.089 10.3451 128.892 10.6011 128.698 10.8931C128.503 11.1808 128.327 11.4792 128.171 11.7881C127.828 12.4694 127.657 13.0492 127.657 13.5273C127.657 14.0013 127.868 14.2383 128.292 14.2383ZM133.363 12.7783C133.38 12.4102 133.442 12.0589 133.547 11.7246C133.653 11.3861 133.795 11.0602 133.973 10.7471C134.15 10.4297 134.358 10.1313 134.595 9.85205C134.836 9.56852 135.096 9.32096 135.375 9.10938C135.981 8.65658 136.592 8.43018 137.21 8.43018C137.934 8.43018 138.416 8.72852 138.657 9.3252C138.742 9.52832 138.782 9.76953 138.778 10.0488C138.774 10.3239 138.721 10.5799 138.619 10.8169C138.518 11.0496 138.376 11.2633 138.194 11.458C138.016 11.6484 137.802 11.8198 137.553 11.9722C137.307 12.1245 137.039 12.2536 136.747 12.3594C136.146 12.571 135.502 12.681 134.817 12.6895C134.8 12.7487 134.789 12.8376 134.785 12.9561C134.781 13.0745 134.794 13.2078 134.823 13.356C134.853 13.4998 134.904 13.6289 134.976 13.7432C135.128 13.9971 135.348 14.124 135.636 14.124C136.127 14.124 136.605 13.9801 137.07 13.6924C137.235 13.5951 137.369 13.4956 137.47 13.394C137.576 13.2882 137.667 13.2354 137.743 13.2354C137.819 13.2354 137.885 13.2819 137.94 13.375C137.999 13.4639 138.029 13.5654 138.029 13.6797C138.029 13.904 137.965 14.0986 137.838 14.2637C137.305 14.7969 136.512 15.0635 135.458 15.0635C134.836 15.0635 134.337 14.8773 133.96 14.5049C133.537 14.0817 133.338 13.5062 133.363 12.7783ZM137.07 9.27441C136.626 9.27441 136.199 9.5791 135.788 10.1885C135.441 10.7132 135.162 11.3353 134.95 12.0547C135.657 11.9827 136.271 11.7035 136.791 11.2168C137.269 10.7598 137.508 10.3218 137.508 9.90283C137.508 9.48389 137.362 9.27441 137.07 9.27441ZM143.126 13.3369C143.249 13.3369 143.31 13.4194 143.31 13.5845C143.31 13.7241 143.268 13.8595 143.183 13.9907C143.069 14.2362 142.84 14.4689 142.498 14.689C142.108 14.9386 141.717 15.0635 141.323 15.0635C140.642 15.0635 140.21 14.7588 140.028 14.1494C139.812 13.4258 140.136 11.8918 141 9.54736C140.513 9.50505 140.248 9.42041 140.206 9.29346C140.193 9.25537 140.187 9.21517 140.187 9.17285C140.187 9.1263 140.206 9.0734 140.244 9.01416C140.286 8.95492 140.339 8.89779 140.403 8.84277C140.551 8.72005 140.701 8.65869 140.854 8.65869H141.355C141.812 7.58805 142.138 6.97868 142.333 6.83057C142.426 6.76286 142.529 6.729 142.644 6.729C142.758 6.729 142.853 6.74382 142.929 6.77344C143.005 6.80306 143.073 6.84538 143.132 6.90039C143.268 7.02734 143.335 7.16911 143.335 7.32568C143.335 7.41032 143.31 7.50765 143.259 7.61768L142.79 8.63965H142.942C143.204 8.63965 143.416 8.63753 143.577 8.6333C143.577 8.6333 143.697 8.63118 143.938 8.62695C144.019 8.62272 144.118 8.62061 144.237 8.62061C144.36 8.62061 144.421 8.66504 144.421 8.75391C144.421 9.3125 143.761 9.5918 142.44 9.5918H142.39L141.958 10.709C141.471 12.0293 141.228 12.9539 141.228 13.4829C141.228 13.631 141.262 13.7474 141.33 13.832C141.397 13.9124 141.524 13.9526 141.71 13.9526C141.897 13.9526 142.066 13.9209 142.218 13.8574C142.371 13.7939 142.504 13.7241 142.618 13.6479C142.732 13.5675 142.83 13.4956 142.91 13.4321C142.995 13.3687 143.067 13.3369 143.126 13.3369ZM149.004 13.3115C149.004 13.7008 149.141 13.8955 149.417 13.8955C149.607 13.8955 149.764 13.8659 149.886 13.8066C150.013 13.7474 150.098 13.7178 150.14 13.7178C150.229 13.7178 150.273 13.7643 150.273 13.8574C150.273 14.2214 150.083 14.5345 149.702 14.7969C149.3 15.0719 148.89 15.1396 148.471 15C148.196 14.9027 147.993 14.6932 147.861 14.3716C147.798 14.2065 147.766 14.0563 147.766 13.9209C147.766 13.7008 147.787 13.4681 147.83 13.2227C147.436 14.0267 146.947 14.5811 146.363 14.8857C146.131 15.0042 145.883 15.0635 145.621 15.0635C145.358 15.0635 145.13 15.0106 144.935 14.9048C144.745 14.7948 144.582 14.6445 144.446 14.4541C144.171 14.0563 144.046 13.557 144.072 12.9561C144.097 12.2028 144.319 11.4644 144.738 10.7407C145.123 10.0636 145.61 9.51139 146.198 9.08398C146.786 8.64811 147.337 8.43018 147.849 8.43018C148.361 8.43018 148.773 8.66504 149.086 9.13477C149.378 8.66504 149.637 8.43018 149.861 8.43018C150.102 8.43018 150.284 8.47461 150.407 8.56348C150.639 8.73275 150.722 8.88086 150.654 9.00781C149.592 11.1829 149.046 12.5371 149.017 13.0703C149.008 13.1465 149.004 13.2269 149.004 13.3115ZM145.481 13.3369C145.481 13.8447 145.644 14.0986 145.97 14.0986C146.219 14.0986 146.526 13.887 146.89 13.4639C147.423 12.8418 147.895 12.0039 148.306 10.9502C148.437 10.6201 148.547 10.29 148.636 9.95996C148.619 9.6722 148.498 9.46061 148.274 9.3252C148.198 9.27865 148.083 9.25537 147.931 9.25537C147.783 9.25537 147.607 9.31038 147.404 9.42041C147.205 9.53044 147.011 9.68066 146.82 9.87109C146.634 10.0615 146.458 10.2879 146.293 10.5503C146.133 10.8084 145.991 11.0898 145.868 11.3945C145.61 12.0462 145.481 12.6937 145.481 13.3369Z"
    fill="#124FEECC"
    fill-opacity="0.8"
  />
</svg>
